.
..............................Site Info...........................

 -   http://www.scenetime.com  *_*   

Good news ! SceneTime will open sign up on Easter day for one day . Its a good chance to sign in on Easter day .

Scenetime .Always on time . friendly online private torrent community ..

     We care to share . Join us on  http://www.scenetime.com 

    Be the first to get new release at  http://www.scenetime.com

        Seed back for speed


...................................NFO:.................................................[img]http://i.imgur.com/wdirz.jpg[/img]

[b]Man.on.a.Ledge.2012.R5.DVDRip.XVID.AC3.5.1-ADTRG[/b]

As a police psychologist works to talk down an ex-con who is threatening to jump from a Manhattan hotel rooftop, the biggest diamond heist ever committed is in motion...  

[url]http://www.imdb.com/title/tt1568338/[/url]

Source -  R5 DVDR   Thanks
          Audio - Hive-CM8  cheers bro


Complete name                            : Man.on.a.Ledge.2012.R5.DVDRip.XVID.AC3.5.1-ADTRG.avi
Format                                   : AVI
Format/Info                              : Audio Video Interleave
File size                                : 1.50 GiB
Duration                                 : 1h 38mn
Overall bit rate                         : 2 188 Kbps
Writing library                          : VirtualDub build 34703/release

Video
ID                                       : 0
Format                                   : MPEG-4 Visual
Codec ID                                 : XVID
Duration                                 : 1h 38mn
Bit rate                                 : 1 795 Kbps
Width                                    : 720 pixels
Height                                   : 304 pixels
Display aspect ratio                     : 2.35:1
Frame rate                               : 25.000 fps
Stream size                              : 1.23 GiB (82%)

Audio
ID                                       : 1
Format                                   : AC-3
Bit rate                                 : 384 Kbps
Channel(s)                               : 6 channels
Channel positions                        : Front: L C R, Side: L R, LFE
Stream size                              : 270 MiB (18%)



Encoder - NoWorries
Cleaned up video and synced Hive's 5.1 audio.looks and sounds retail to me on my 48in HDTV ;)

[img]http://i.imgur.com/LrXAT.jpg[/img]


[IMG]http://i.imgur.com/2739o.gif?1?8830[/IMG]

Dont fear the Atomic Dragon, Embrace it  :)


Greetz to DragonMaster,cOOkies,Mr Geek,DBratt420,AnimeKing,Cush,NoWoRRiEs Rayne, Mr & Mrs IrNbRu and the rest of the crew

Respect to CM8,Goon,Hope,mSD,InfernO,legend-rg and maybe a few more ;)